<svg xmlns="http://www.w3.org/2000/svg" viewBox="0 0 64 64" width="64" height="64">
  <circle cx="32" cy="32" r="30" fill="#B7410E"/>
  <path d="M20 28c0-8 5-14 12-14s12 6 12 14" fill="none" stroke="#D4A843" stroke-width="2.5" stroke-linecap="round"/>
  <ellipse cx="32" cy="30" rx="12" ry="4" fill="#FFF8F0"/>
  <ellipse cx="32" cy="30" rx="9" ry="3" fill="#D4A843"/>
  <rect x="24" y="30" width="16" height="12" rx="2" fill="#FFF8F0"/>
  <rect x="26" y="32" width="12" height="8" rx="1" fill="#5D4037"/>
  <path d="M40 34c4 0 7 2 7 5s-3 5-7 5" fill="none" stroke="#FFF8F0" stroke-width="2" stroke-linecap="round"/>
  <path d="M22 44c3 2 6 3 10 3s7-1 10-3" fill="none" stroke="#D4A843" stroke-width="2" stroke-linecap="round"/>
  <path d="M19 48c4 2 8 3 13 3s9-1 13-3" fill="none" stroke="#D4A843" stroke-width="1.5" stroke-linecap="round" opacity="0.6"/>
</svg>
